<?xml version="1.0" encoding="utf-8"?>
<!-- Generator: Adobe Illustrator 15.1.0, SVG Export Plug-In . SVG Version: 6.00 Build 0)  -->
<!DOCTYPE svg PUBLIC "-//W3C//DTD SVG 1.1//EN" "http://www.w3.org/Graphics/SVG/1.1/DTD/svg11.dtd">
<svg version="1.1" id="Layer_1" xmlns="http://www.w3.org/2000/svg" xmlns:xlink="http://www.w3.org/1999/xlink" x="0px" y="0px"
	 width="121.738px" height="70px" viewBox="179.292 103.094 121.738 70" enable-background="new 179.292 103.094 121.738 70"
	 xml:space="preserve">
<g>
	<g>
		<path d="M190.463,168.203c-0.151,0-0.666,0.045-1.938,0.045c-1.241,0-1.968-0.045-2.149-0.045c-0.061,0-0.091,0.03-0.091,0.121
			v0.349c0,0.075,0.03,0.136,0.122,0.136h0.636c0.394,0,0.545,0.151,0.545,0.696v1.106c0,0.787-0.031,1.211-0.364,1.393
			c-0.515,0.273-1.09,0.395-2.059,0.395s-1.696-0.333-2.422-1.03c-0.878-0.878-1.362-2.423-1.362-4.21
			c0-1.333,0.515-2.604,1.241-3.423c0.818-0.938,1.635-1.182,2.574-1.182c1.15,0,1.998,0.516,2.513,1.061
			c0.606,0.637,0.999,1.484,1.211,2.09c0.031,0.091,0.061,0.137,0.151,0.121l0.364-0.06c0.061-0.016,0.061-0.091,0.061-0.213
			l-0.151-3.029c0-0.12-0.03-0.211-0.182-0.211c-0.091,0-0.136,0.045-0.212,0.151l-0.182,0.242c-0.091,0.121-0.182,0.166-0.363,0.03
			c-0.484-0.364-1.635-0.818-3.088-0.818c-1.816,0-3.209,0.516-4.299,1.484c-1.12,0.969-1.726,2.423-1.726,3.816
			c0,1.787,0.455,3.089,1.393,4.119c1.029,1.242,2.876,1.757,4.36,1.757c1.816,0,3.058-0.363,4.299-0.999
			c0.151-0.061,0.242-0.122,0.242-0.243s-0.061-0.272-0.061-0.484v-1.999c0-0.439,0.182-0.561,0.454-0.561h0.515
			c0.09,0,0.121-0.03,0.121-0.121v-0.379C190.615,168.234,190.584,168.203,190.463,168.203z M202.525,170.263l-0.242-0.151
			c-0.061-0.03-0.106-0.016-0.167,0.061c-0.288,0.363-1.135,1.363-1.408,1.605c-0.394,0.333-0.969,0.484-1.241,0.515
			c-0.303,0.03-0.999,0.061-1.272,0.061c-0.575,0-0.938-0.061-1.181-0.121c-0.333-0.091-0.605-0.395-0.605-1.182
			c0-0.272-0.03-1.757-0.045-2.574l-0.015-0.909c0.484,0,1.211,0.03,1.756,0.091c0.333,0.03,0.621,0.242,0.757,0.545
			c0.076,0.182,0.182,0.515,0.242,0.758c0.03,0.091,0.061,0.121,0.121,0.105l0.333-0.061c0.091-0.015,0.121-0.03,0.121-0.105
			c-0.03-0.333-0.091-1.061-0.091-1.666c0-0.394,0-1.394,0.031-1.636c0.015-0.091-0.031-0.121-0.091-0.121l-0.394-0.03
			c-0.061,0-0.121,0.03-0.121,0.121c0,0.272-0.151,0.651-0.243,0.849c-0.182,0.363-0.363,0.484-0.696,0.545
			c-0.182,0.045-1.272,0.075-1.726,0.075l0.03-4.377l2.301,0.061c0.424,0.016,0.833,0.212,1.15,0.394
			c0.364,0.212,1.605,1.605,1.665,1.696c0.045,0.076,0.091,0.091,0.137,0.076l0.272-0.121c0.061-0.03,0.076-0.076,0.045-0.167
			c-0.061-0.151-0.636-2.211-0.697-2.408c-0.015-0.061-0.045-0.091-0.121-0.091s-0.363,0.016-0.605,0.016
			c-0.666,0-4.148,0.03-4.814,0.03h-0.424c-1.241,0.016-1.786-0.046-2.12-0.046c-0.076,0-0.09,0.03-0.09,0.106v0.394
			c0,0.076,0.03,0.106,0.09,0.106h0.576c0.454,0,0.605,0.121,0.666,0.53c0.03,0.212,0.061,2.09,0.061,3.331v5.089
			c0,0.561-0.061,0.651-0.757,0.651H193.2c-0.121,0-0.151,0.03-0.151,0.121v0.364c0,0.09,0.031,0.121,0.121,0.121
			c0.137,0,0.348-0.016,0.651-0.03c0.318,0,0.727-0.016,1.287-0.016c2.528,0,4.087,0.016,5.041,0.016
			c0.939,0.015,1.272,0.03,1.347,0.03c0.182,0,0.288-0.091,0.333-0.228l0.727-2.271
			C202.586,170.338,202.571,170.293,202.525,170.263z M214.5,170.263l-0.243-0.151c-0.061-0.03-0.106-0.016-0.167,0.061
			c-0.288,0.363-1.135,1.363-1.408,1.605c-0.394,0.333-0.969,0.484-1.242,0.515c-0.303,0.03-0.999,0.061-1.271,0.061
			c-0.575,0-0.938-0.061-1.181-0.121c-0.333-0.091-0.605-0.395-0.605-1.182c0-0.272-0.03-1.757-0.045-2.574l-0.015-0.909
			c0.484,0,1.211,0.03,1.756,0.091c0.333,0.03,0.621,0.242,0.757,0.545c0.076,0.182,0.182,0.515,0.242,0.758
			c0.03,0.091,0.061,0.121,0.121,0.105l0.333-0.061c0.091-0.015,0.121-0.03,0.121-0.105c-0.03-0.333-0.091-1.061-0.091-1.666
			c0-0.394,0-1.394,0.031-1.636c0.015-0.091-0.031-0.121-0.091-0.121l-0.394-0.03c-0.061,0-0.121,0.03-0.121,0.121
			c0,0.272-0.151,0.651-0.243,0.849c-0.181,0.363-0.363,0.484-0.696,0.545c-0.182,0.045-1.272,0.075-1.726,0.075l0.03-4.377
			l2.301,0.061c0.423,0.016,0.833,0.212,1.15,0.394c0.363,0.212,1.605,1.605,1.666,1.696c0.045,0.076,0.09,0.091,0.136,0.076
			l0.272-0.121c0.061-0.03,0.076-0.076,0.045-0.167c-0.061-0.151-0.636-2.211-0.697-2.408c-0.015-0.061-0.045-0.091-0.121-0.091
			s-0.363,0.016-0.605,0.016c-0.666,0-4.148,0.03-4.814,0.03h-0.424c-1.242,0.016-1.787-0.046-2.12-0.046
			c-0.075,0-0.09,0.03-0.09,0.106v0.394c0,0.076,0.03,0.106,0.09,0.106h0.576c0.454,0,0.605,0.121,0.666,0.53
			c0.03,0.212,0.061,2.09,0.061,3.331v5.089c0,0.561-0.061,0.651-0.757,0.651h-0.515c-0.121,0-0.151,0.03-0.151,0.121v0.364
			c0,0.09,0.03,0.121,0.121,0.121c0.136,0,0.348-0.016,0.651-0.03c0.318,0,0.727-0.016,1.287-0.016c2.528,0,4.087,0.016,5.042,0.016
			c0.938,0.015,1.271,0.03,1.347,0.03c0.182,0,0.288-0.091,0.333-0.228l0.727-2.271C214.56,170.338,214.544,170.293,214.5,170.263z
			 M227.381,172.308h-0.333c-0.242,0-0.636-0.03-0.908-0.364c-0.454-0.53-3.542-4.528-4.148-5.285
			c0.575-0.758,2.709-3.227,3.421-3.695c0.302-0.197,0.636-0.258,0.848-0.258h0.303c0.061,0,0.121-0.03,0.121-0.121v-0.379
			c0-0.076-0.03-0.105-0.121-0.105c-0.182,0-0.697,0.045-1.302,0.045c-0.999,0-1.604-0.045-1.786-0.045
			c-0.061,0-0.091,0.029-0.091,0.121v0.363c0,0.076,0.015,0.106,0.076,0.106h0.227c0.272,0,0.455,0.182,0.243,0.484
			c-0.167,0.227-2.801,3.514-3.088,3.756c-0.182,0.151-0.333,0.212-0.515,0.212h-0.272v-0.666c0-0.727,0.06-3.09,0.06-3.332
			c0-0.349,0.151-0.438,0.455-0.438h0.484c0.09,0,0.121-0.031,0.121-0.122v-0.379c0-0.075-0.03-0.105-0.121-0.105
			c-0.212,0-0.697,0.045-1.877,0.045c-1.302,0-1.756-0.045-1.938-0.045c-0.09,0-0.121,0.03-0.121,0.091v0.408
			c0,0.076,0.03,0.106,0.121,0.106h0.455c0.363,0,0.454,0.182,0.454,0.363c0,0.137,0.03,3.045,0.03,3.317v0.878
			c0,1.878-0.03,4.635-0.045,4.756c-0.015,0.167-0.136,0.288-0.409,0.288h-0.545c-0.061,0-0.091,0.03-0.091,0.091v0.408
			c0,0.076,0.031,0.106,0.091,0.106c0.151,0,0.636-0.046,1.938-0.046c1.302,0,1.756,0.046,1.938,0.046
			c0.061,0,0.091-0.061,0.091-0.121v-0.409c0-0.046-0.061-0.075-0.121-0.075h-0.575c-0.182,0-0.333-0.122-0.349-0.334
			c-0.015-0.227-0.045-2.438-0.045-3.195v-1.12h0.272c0.182,0,0.364,0.061,0.515,0.212c0.242,0.242,2.694,3.755,2.846,4.059
			c0.061,0.121,0.03,0.394-0.242,0.394h-0.212c-0.061,0-0.091,0.03-0.091,0.091v0.379c0,0.091,0.031,0.121,0.091,0.121
			c0.212,0,0.787-0.045,2.059-0.045c1.393,0,1.938,0.045,2.089,0.045c0.091,0,0.121-0.03,0.121-0.121v-0.379
			C227.502,172.367,227.472,172.308,227.381,172.308z M247.13,171.051l-0.272-0.183c-0.03-0.03-0.061-0.03-0.121,0.03
			c-0.091,0.152-0.666,1.091-1.604,1.091c-0.848,0-1.514-0.696-1.786-1c-0.364-0.333-1-1.12-1.212-1.332
			c0.637-0.818,1.817-2.696,1.938-2.878c0.212-0.333,0.424-0.394,1.029-0.394h0.242c0.091,0,0.121-0.046,0.121-0.122v-0.318
			c0-0.09-0.029-0.121-0.121-0.121c-0.091,0-0.999,0.046-1.544,0.046c-0.666,0-1.484-0.046-1.635-0.046
			c-0.061,0-0.091,0.031-0.091,0.106v0.333c0,0.091,0.03,0.121,0.091,0.121h0.242c0.303,0,0.484,0.212,0.454,0.455
			c-0.03,0.545-0.636,1.695-1.12,2.302c-0.787-1.121-1.968-2.332-3.088-2.848c0.727-0.333,1.726-1.211,1.756-2.06
			c0.03-0.999-0.969-2.09-2.422-2.09c-1.181,0-2.694,1.394-2.694,2.574c0,0.667,0.515,1.363,1.544,2.029
			c-0.515,0.273-1.15,0.667-1.635,1.151c-0.636,0.545-1.272,1.424-1.272,2.545c0,1.423,1.544,2.649,3.361,2.649
			c1.938,0,2.937-1.348,3.604-2.074c0.727,0.878,1.544,2.074,3.209,2.074c1.847,0,2.785-1.408,3.027-1.923
			C247.161,171.111,247.161,171.051,247.13,171.051z M236.806,164.387c0-0.818,0.424-1.636,1.181-1.636
			c0.666,0,1.06,0.848,1.06,1.453c0,1.121-0.545,1.515-0.848,1.787C237.563,165.628,236.806,164.992,236.806,164.387z
			 M237.866,171.974c-0.908,0-2.15-0.833-2.18-2.074c-0.03-1.242,0.818-2.363,1.575-2.787c1.271,0.727,2.573,2.333,3.3,3.423
			C240.076,171.051,239.289,171.974,237.866,171.974z M267.335,172.308h-0.817c-0.272,0-0.409-0.243-0.424-0.818
			c0-0.258-0.03-2.469-0.03-3.378v-1.06c0-0.394,0-3.423,0.016-3.756c0.015-0.318,0.045-0.591,0.438-0.591h0.666
			c0.091,0,0.121-0.061,0.121-0.151v-0.318c0-0.075-0.03-0.136-0.091-0.136c-0.182,0-0.696,0.061-2.906,0.045
			c-0.363,0-0.545,0.03-0.591,0.182c-0.075,0.303-1.438,3.424-1.711,4.06c-0.394,0.894-1.468,3.393-1.604,3.665
			c-0.453-1.242-2.573-6.271-3.118-7.693c-0.076-0.197-0.182-0.258-0.363-0.258s-0.605,0.045-1.332,0.045
			c-1.604,0-1.999-0.045-2.15-0.045c-0.09,0-0.121,0.061-0.121,0.091v0.408c0,0.046,0.03,0.106,0.121,0.106h0.667
			c0.666,0,0.741,0.333,0.741,0.879v2.59c0,0.272-0.09,3.998-0.227,5.059c-0.076,0.529-0.242,1.075-0.757,1.075h-0.696
			c-0.091,0-0.091,0.06-0.091,0.09v0.379c0,0.106,0,0.137,0.121,0.137c0.151,0,0.666-0.046,1.968-0.046
			c1.151,0,1.575,0.046,1.727,0.046c0.121,0,0.151-0.061,0.151-0.121v-0.379c0-0.046-0.03-0.106-0.121-0.106h-0.666
			c-0.485,0-0.666-0.575-0.728-1.272c-0.09-0.984-0.075-3.559-0.075-3.74s0.016-3.998,0.075-4.211
			c0.183,0.183,1.575,3.575,1.848,4.271c0.091,0.242,2.059,4.968,2.119,5.059c0.061,0.182,0.151,0.272,0.242,0.272
			c0.151,0,0.272-0.212,0.333-0.333c0.075-0.151,1.619-3.726,1.847-4.211c0.182-0.394,2.089-4.815,2.21-5.027h0.061
			c0.03,0.061,0.03,3.816,0.03,4.271v0.849c0,1.212-0.03,3.392-0.045,3.544c-0.046,0.438-0.167,0.53-0.439,0.53h-0.938
			c-0.091,0-0.121,0.029-0.121,0.12v0.349c0,0.076,0.03,0.137,0.121,0.137c0.212,0,0.787-0.046,2.271-0.046
			c1.333,0,2.06,0.046,2.241,0.046c0.121,0,0.121-0.061,0.121-0.151v-0.349C267.426,172.367,267.426,172.308,267.335,172.308z
			 M274.952,172.308h-0.636c-0.363,0-0.605-0.061-0.605-0.546c0-0.166-0.03-3.649-0.03-3.801v-1.182c0-0.182,0.03-3.514,0.03-3.665
			c0-0.288,0.242-0.408,0.575-0.408h0.575c0.061,0,0.121-0.031,0.121-0.122v-0.348c0-0.076-0.03-0.137-0.121-0.137
			c-0.212,0-0.696,0.045-2.149,0.045c-1.483,0-2.271-0.045-2.452-0.045c-0.061,0-0.091,0.03-0.091,0.105v0.395
			c0,0.075,0.03,0.106,0.121,0.106h0.787c0.424,0,0.575,0.151,0.62,0.515c0.016,0.196,0.046,2.922,0.046,3.286v1.061
			c0,0.817-0.03,4.089-0.061,4.301c-0.061,0.409-0.394,0.439-0.696,0.439h-0.605c-0.091,0-0.121,0.03-0.121,0.091v0.408
			c0,0.076,0.03,0.106,0.121,0.106c0.151,0,0.817-0.046,2.331-0.046c1.423,0,2.028,0.046,2.21,0.046c0.091,0,0.152-0.03,0.152-0.121
			v-0.379C275.074,172.337,275.012,172.308,274.952,172.308z M286.892,169.657c-0.09-0.03-0.121,0-0.182,0.061
			c-0.211,0.575-1.18,2.393-2.028,2.514c-0.605,0.076-1.695,0.076-2.543,0.076h-0.848c-0.061-0.651-0.061-3.923-0.061-4.195v-1.303
			c0-1.061,0.061-3.332,0.061-3.544c0-0.409,0.061-0.561,0.515-0.561h0.817c0.121,0,0.151-0.061,0.151-0.121v-0.349
			c0-0.075-0.03-0.136-0.151-0.136s-0.757,0.045-2.392,0.045c-1.394,0-1.938-0.045-2.09-0.045c-0.09,0-0.121,0.029-0.121,0.121
			v0.349c0,0.045,0.03,0.136,0.121,0.136h0.637c0.394,0,0.454,0.151,0.484,0.545c0.029,0.258,0.06,1.863,0.06,2.832v0.849
			c0,0.908-0.06,4.694-0.06,4.968c0,0.197-0.091,0.409-0.637,0.409h-0.605c-0.091,0-0.091,0.029-0.091,0.12v0.349
			c0,0.106,0,0.137,0.122,0.137c0.182,0,0.727-0.046,2.089-0.046c1.544,0,5.904,0.03,6.298,0.046
			c0.09-0.409,0.696-2.923,0.757-3.014c0-0.091,0-0.122-0.03-0.152L286.892,169.657z M299.335,163.478
			c-1.393-1.182-3.028-1.378-5.057-1.378c-0.756,0-1.514,0.045-2.271,0.045c-1.06,0-1.847-0.045-2.286-0.045
			c-0.076,0-0.136,0.029-0.136,0.091v0.408c0,0.076,0.06,0.106,0.12,0.106h0.818c0.303,0,0.515,0.061,0.545,0.424
			c0.03,0.228,0.091,2.378,0.091,2.771v1.151c0,1.151-0.061,4.573-0.106,4.876c-0.046,0.258-0.196,0.379-0.499,0.379h-0.878
			c-0.091,0-0.122,0.03-0.122,0.091v0.379c0,0.105,0.03,0.136,0.091,0.136c0.212,0,0.817-0.045,2.149-0.045
			c0.757,0,2.302,0.045,2.877,0.045c1.029,0,3.391-0.015,4.874-1.62c1-1.091,1.484-2.241,1.484-3.968
			C301.031,165.568,300.334,164.295,299.335,163.478z M297.852,170.808c-0.757,1-1.969,1.529-3.149,1.529
			c-0.575,0-1.15-0.121-1.332-0.408c-0.212-0.304-0.272-0.546-0.272-0.849c0-0.938-0.03-3.514-0.03-3.695v-1.091
			c0-0.242,0-2.211,0.03-2.847c0-0.303,0.061-0.545,0.272-0.666c0.242-0.152,0.636-0.152,0.969-0.152
			c1.241,0,2.573,0.546,3.392,1.424c0.695,0.788,1.211,2.09,1.211,3.302C298.942,168.748,298.488,169.99,297.852,170.808z
			 M245.949,127.581c-4.825,0-5.744,3.793-5.744,5.172c0,1.954,1.378,3.448,1.838,3.448c0.344,0,0.689-0.345,0.574-0.805
			c-0.115-0.919,0.689-2.758,2.412-2.758c2.183,0,3.217,1.149,3.217,2.873c0,1.495-0.919,3.333-4.021,3.333
			c-2.758,0-6.434-2.299-6.434-7.126c0-4.252,3.562-8.39,9.65-8.39c2.413,0,4.596,0.46,7.123,0.46c4.71,0,7.697-1.839,7.697-5.058
			c0-0.095-0.006-0.191-0.015-0.287c-0.25-0.706-0.534-1.396-0.851-2.069c-0.636-0.841-1.528-1.436-2.353-1.436
			c-0.804,0-0.804,0.689-0.688,1.264c0.345,0.919-0.46,2.873-2.527,2.873c-1.839,0-2.758-1.264-2.758-2.528
			c0-2.299,2.298-3.678,4.48-3.678c0.697,0,1.346,0.07,1.946,0.197c-4.159-6.024-11.108-9.973-18.98-9.973
			c-12.731,0-23.051,10.325-23.051,23.061c0,2.271,0.33,4.464,0.941,6.537c1.406-3.889,4.26-6.191,5.943-6.949
			c-1.493-1.954-2.413-4.252-2.413-6.781c0-4.252,3.446-8.275,9.076-8.275c3.446,0,6.089,1.839,6.089,5.402
			c0,2.529-2.068,3.908-2.987,3.908c-0.23,0-0.23-0.46-0.115-1.035c0.345-2.183-1.493-3.792-3.676-3.792
			c-2.528,0-5.17,2.184-5.17,5.861c0,1.264,0.459,2.873,1.264,4.137c0.575-0.229,1.494-0.689,2.872-0.689
			c1.379,0,2.987,0.574,2.987,1.954c0,1.609-0.804,2.758-2.298,2.758c-1.149,0-2.987-0.805-3.791-1.379
			c-0.344-0.574-0.689-0.689-1.378-0.229c-1.723,1.264-3.102,4.252-3.102,7.471c0,7.011,5.974,11.838,16.428,11.838
			c10.455,0,15.969-5.861,15.969-11.378C254.106,131.604,251.119,127.581,245.949,127.581z M255.714,128.501
			c-1.379,0.115-1.379,0.689-0.805,1.379c0.689,1.149,1.724,3.333,1.724,6.896c0,2.965-0.795,5.569-2.192,7.76
			c5.547-4.212,9.129-10.877,9.129-18.38c0-0.74-0.036-1.471-0.104-2.193C261.988,126.515,259.245,127.975,255.714,128.501z"/>
	</g>
</g>
</svg>
